<svg width="1264" height="42" viewBox="0 0 1264 42" fill="none" xmlns="http://www.w3.org/2000/svg">
<path d="M0 4C0 2.11438 0 1.17157 0.585786 0.585786C1.17157 0 2.11438 0 4 0H1225V42H4.00002C2.11439 42 1.17157 42 0.585786 41.4142C0 40.8284 0 39.8856 0 38V4Z" fill="#F3F3F3"/>
<path d="M19.7917 25.9583C22.9213 25.9583 25.4583 23.4213 25.4583 20.2917C25.4583 17.1621 22.9213 14.625 19.7917 14.625C16.6621 14.625 14.125 17.1621 14.125 20.2917C14.125 23.4213 16.6621 25.9583 19.7917 25.9583Z" stroke="#ADADAD" stroke-linecap="round" stroke-linejoin="round"/>
<path d="M26.875 27.375L23.7937 24.2938" stroke="#ADADAD" stroke-linecap="round" stroke-linejoin="round"/>
<path d="M40.172 25.598C39.528 25.598 38.9493 25.486 38.436 25.262C37.932 25.0287 37.5353 24.7113 37.246 24.31C36.9567 23.8993 36.8073 23.428 36.798 22.896H38.156C38.2027 23.3533 38.3893 23.7407 38.716 24.058C39.052 24.366 39.5373 24.52 40.172 24.52C40.7787 24.52 41.2547 24.3707 41.6 24.072C41.9547 23.764 42.132 23.372 42.132 22.896C42.132 22.5227 42.0293 22.2193 41.824 21.986C41.6187 21.7527 41.362 21.5753 41.054 21.454C40.746 21.3327 40.3307 21.202 39.808 21.062C39.164 20.894 38.646 20.726 38.254 20.558C37.8713 20.39 37.54 20.1287 37.26 19.774C36.9893 19.41 36.854 18.9247 36.854 18.318C36.854 17.786 36.9893 17.3147 37.26 16.904C37.5307 16.4933 37.9087 16.176 38.394 15.952C38.8887 15.728 39.4533 15.616 40.088 15.616C41.0027 15.616 41.7493 15.8447 42.328 16.302C42.916 16.7593 43.2473 17.366 43.322 18.122H41.922C41.8753 17.7487 41.6793 17.422 41.334 17.142C40.9887 16.8527 40.5313 16.708 39.962 16.708C39.43 16.708 38.996 16.848 38.66 17.128C38.324 17.3987 38.156 17.7813 38.156 18.276C38.156 18.6307 38.254 18.92 38.45 19.144C38.6553 19.368 38.9027 19.5407 39.192 19.662C39.4907 19.774 39.906 19.9047 40.438 20.054C41.082 20.2313 41.6 20.4087 41.992 20.586C42.384 20.754 42.72 21.02 43 21.384C43.28 21.7387 43.42 22.224 43.42 22.84C43.42 23.316 43.294 23.764 43.042 24.184C42.79 24.604 42.4167 24.9447 41.922 25.206C41.4273 25.4673 40.844 25.598 40.172 25.598ZM52.2948 21.37C52.2948 21.6127 52.2808 21.8693 52.2528 22.14H46.1208C46.1675 22.896 46.4241 23.4887 46.8908 23.918C47.3668 24.338 47.9408 24.548 48.6128 24.548C49.1635 24.548 49.6208 24.422 49.9848 24.17C50.3581 23.9087 50.6195 23.5633 50.7688 23.134H52.1408C51.9355 23.8713 51.5248 24.4733 50.9088 24.94C50.2928 25.3973 49.5275 25.626 48.6128 25.626C47.8848 25.626 47.2315 25.4627 46.6528 25.136C46.0835 24.8093 45.6355 24.3473 45.3088 23.75C44.9821 23.1433 44.8188 22.4433 44.8188 21.65C44.8188 20.8567 44.9775 20.1613 45.2948 19.564C45.6121 18.9667 46.0555 18.5093 46.6248 18.192C47.2035 17.8653 47.8661 17.702 48.6128 17.702C49.3408 17.702 49.9848 17.8607 50.5448 18.178C51.1048 18.4953 51.5341 18.934 51.8328 19.494C52.1408 20.0447 52.2948 20.67 52.2948 21.37ZM50.9788 21.104C50.9788 20.6187 50.8715 20.2033 50.6568 19.858C50.4421 19.5033 50.1481 19.2373 49.7748 19.06C49.4108 18.8733 49.0048 18.78 48.5568 18.78C47.9128 18.78 47.3621 18.9853 46.9048 19.396C46.4568 19.8067 46.2001 20.376 46.1348 21.104H50.9788ZM53.5004 21.636C53.5004 20.852 53.6591 20.166 53.9764 19.578C54.2938 18.9807 54.7278 18.5187 55.2784 18.192C55.8384 17.8653 56.4591 17.702 57.1404 17.702C57.8124 17.702 58.3958 17.8467 58.8904 18.136C59.3851 18.4253 59.7538 18.7893 59.9964 19.228V17.828H61.2844V25.5H59.9964V24.072C59.7444 24.52 59.3664 24.8933 58.8624 25.192C58.3678 25.4813 57.7891 25.626 57.1264 25.626C56.4451 25.626 55.8291 25.458 55.2784 25.122C54.7278 24.786 54.2938 24.3147 53.9764 23.708C53.6591 23.1013 53.5004 22.4107 53.5004 21.636ZM59.9964 21.65C59.9964 21.0713 59.8798 20.5673 59.6464 20.138C59.4131 19.7087 59.0958 19.382 58.6944 19.158C58.3024 18.9247 57.8684 18.808 57.3924 18.808C56.9164 18.808 56.4824 18.92 56.0904 19.144C55.6984 19.368 55.3858 19.6947 55.1524 20.124C54.9191 20.5533 54.8024 21.0573 54.8024 21.636C54.8024 22.224 54.9191 22.7373 55.1524 23.176C55.3858 23.6053 55.6984 23.9367 56.0904 24.17C56.4824 24.394 56.9164 24.506 57.3924 24.506C57.8684 24.506 58.3024 24.394 58.6944 24.17C59.0958 23.9367 59.4131 23.6053 59.6464 23.176C59.8798 22.7373 59.9964 22.2287 59.9964 21.65ZM64.7114 19.074C64.9354 18.6353 65.2527 18.2947 65.6634 18.052C66.0834 17.8093 66.592 17.688 67.1894 17.688V19.004H66.8534C65.4254 19.004 64.7114 19.7787 64.7114 21.328V25.5H63.4374V17.828H64.7114V19.074ZM68.184 21.65C68.184 20.8567 68.3427 20.166 68.66 19.578C68.9774 18.9807 69.416 18.5187 69.976 18.192C70.5454 17.8653 71.194 17.702 71.922 17.702C72.8647 17.702 73.6394 17.9307 74.246 18.388C74.862 18.8453 75.268 19.48 75.464 20.292H74.092C73.9614 19.8253 73.7047 19.4567 73.322 19.186C72.9487 18.9153 72.482 18.78 71.922 18.78C71.194 18.78 70.606 19.032 70.158 19.536C69.71 20.0307 69.486 20.7353 69.486 21.65C69.486 22.574 69.71 23.288 70.158 23.792C70.606 24.296 71.194 24.548 71.922 24.548C72.482 24.548 72.9487 24.4173 73.322 24.156C73.6954 23.8947 73.952 23.5213 74.092 23.036H75.464C75.2587 23.82 74.848 24.45 74.232 24.926C73.616 25.3927 72.846 25.626 71.922 25.626C71.194 25.626 70.5454 25.4627 69.976 25.136C69.416 24.8093 68.9774 24.3473 68.66 23.75C68.3427 23.1527 68.184 22.4527 68.184 21.65ZM80.9719 17.688C81.5506 17.688 82.0733 17.814 82.5399 18.066C83.0066 18.3087 83.3706 18.6773 83.6319 19.172C83.9026 19.6667 84.0379 20.2687 84.0379 20.978V25.5H82.7779V21.16C82.7779 20.3947 82.5866 19.8113 82.2039 19.41C81.8213 18.9993 81.2986 18.794 80.6359 18.794C79.9639 18.794 79.4273 19.004 79.0259 19.424C78.6339 19.844 78.4379 20.4553 78.4379 21.258V25.5H77.1639V15.14H78.4379V18.92C78.6899 18.528 79.0353 18.2247 79.4739 18.01C79.9219 17.7953 80.4213 17.688 80.9719 17.688ZM92.9734 18.878H91.3634V25.5H90.0894V18.878H89.0954V17.828H90.0894V17.282C90.0894 16.4233 90.3088 15.798 90.7474 15.406C91.1954 15.0047 91.9094 14.804 92.8894 14.804V15.868C92.3294 15.868 91.9328 15.98 91.6994 16.204C91.4754 16.4187 91.3634 16.778 91.3634 17.282V17.828H92.9734V18.878ZM97.8049 25.626C97.0862 25.626 96.4329 25.4627 95.8449 25.136C95.2662 24.8093 94.8089 24.3473 94.4729 23.75C94.1462 23.1433 93.9829 22.4433 93.9829 21.65C93.9829 20.866 94.1509 20.1753 94.4869 19.578C94.8322 18.9713 95.2989 18.5093 95.8869 18.192C96.4749 17.8653 97.1329 17.702 97.8609 17.702C98.5889 17.702 99.2469 17.8653 99.8349 18.192C100.423 18.5093 100.885 18.9667 101.221 19.564C101.566 20.1613 101.739 20.8567 101.739 21.65C101.739 22.4433 101.562 23.1433 101.207 23.75C100.862 24.3473 100.39 24.8093 99.7929 25.136C99.1955 25.4627 98.5329 25.626 97.8049 25.626ZM97.8049 24.506C98.2622 24.506 98.6915 24.3987 99.0929 24.184C99.4942 23.9693 99.8162 23.6473 100.059 23.218C100.311 22.7887 100.437 22.266 100.437 21.65C100.437 21.034 100.316 20.5113 100.073 20.082C99.8302 19.6527 99.5129 19.3353 99.1209 19.13C98.7289 18.9153 98.3042 18.808 97.8469 18.808C97.3802 18.808 96.9509 18.9153 96.5589 19.13C96.1762 19.3353 95.8682 19.6527 95.6349 20.082C95.4015 20.5113 95.2849 21.034 95.2849 21.65C95.2849 22.2753 95.3969 22.8027 95.6209 23.232C95.8542 23.6613 96.1622 23.9833 96.5449 24.198C96.9275 24.4033 97.3475 24.506 97.8049 24.506ZM104.688 19.074C104.912 18.6353 105.229 18.2947 105.64 18.052C106.06 17.8093 106.569 17.688 107.166 17.688V19.004H106.83C105.402 19.004 104.688 19.7787 104.688 21.328V25.5H103.414V17.828H104.688V19.074ZM113.643 19.074C113.867 18.6353 114.184 18.2947 114.595 18.052C115.015 17.8093 115.524 17.688 116.121 17.688V19.004H115.785C114.357 19.004 113.643 19.7787 113.643 21.328V25.5H112.369V17.828H113.643V19.074ZM124.592 21.37C124.592 21.6127 124.578 21.8693 124.55 22.14H118.418C118.464 22.896 118.721 23.4887 119.188 23.918C119.664 24.338 120.238 24.548 120.91 24.548C121.46 24.548 121.918 24.422 122.282 24.17C122.655 23.9087 122.916 23.5633 123.066 23.134H124.438C124.232 23.8713 123.822 24.4733 123.206 24.94C122.59 25.3973 121.824 25.626 120.91 25.626C120.182 25.626 119.528 25.4627 118.95 25.136C118.38 24.8093 117.932 24.3473 117.606 23.75C117.279 23.1433 117.116 22.4433 117.116 21.65C117.116 20.8567 117.274 20.1613 117.592 19.564C117.909 18.9667 118.352 18.5093 118.922 18.192C119.5 17.8653 120.163 17.702 120.91 17.702C121.638 17.702 122.282 17.8607 122.842 18.178C123.402 18.4953 123.831 18.934 124.13 19.494C124.438 20.0447 124.592 20.67 124.592 21.37ZM123.276 21.104C123.276 20.6187 123.168 20.2033 122.954 19.858C122.739 19.5033 122.445 19.2373 122.072 19.06C121.708 18.8733 121.302 18.78 120.854 18.78C120.21 18.78 119.659 18.9853 119.202 19.396C118.754 19.8067 118.497 20.376 118.432 21.104H123.276ZM125.797 21.65C125.797 20.8567 125.956 20.166 126.273 19.578C126.591 18.9807 127.029 18.5187 127.589 18.192C128.159 17.8653 128.807 17.702 129.535 17.702C130.478 17.702 131.253 17.9307 131.859 18.388C132.475 18.8453 132.881 19.48 133.077 20.292H131.705C131.575 19.8253 131.318 19.4567 130.935 19.186C130.562 18.9153 130.095 18.78 129.535 18.78C128.807 18.78 128.219 19.032 127.771 19.536C127.323 20.0307 127.099 20.7353 127.099 21.65C127.099 22.574 127.323 23.288 127.771 23.792C128.219 24.296 128.807 24.548 129.535 24.548C130.095 24.548 130.562 24.4173 130.935 24.156C131.309 23.8947 131.565 23.5213 131.705 23.036H133.077C132.872 23.82 132.461 24.45 131.845 24.926C131.229 25.3927 130.459 25.626 129.535 25.626C128.807 25.626 128.159 25.4627 127.589 25.136C127.029 24.8093 126.591 24.3473 126.273 23.75C125.956 23.1527 125.797 22.4527 125.797 21.65ZM135.435 16.582C135.193 16.582 134.987 16.498 134.819 16.33C134.651 16.162 134.567 15.9567 134.567 15.714C134.567 15.4713 134.651 15.266 134.819 15.098C134.987 14.93 135.193 14.846 135.435 14.846C135.669 14.846 135.865 14.93 136.023 15.098C136.191 15.266 136.275 15.4713 136.275 15.714C136.275 15.9567 136.191 16.162 136.023 16.33C135.865 16.498 135.669 16.582 135.435 16.582ZM136.051 17.828V25.5H134.777V17.828H136.051ZM139.497 19.242C139.749 18.8033 140.122 18.4393 140.617 18.15C141.121 17.8513 141.704 17.702 142.367 17.702C143.048 17.702 143.664 17.8653 144.215 18.192C144.775 18.5187 145.213 18.9807 145.531 19.578C145.848 20.166 146.007 20.852 146.007 21.636C146.007 22.4107 145.848 23.1013 145.531 23.708C145.213 24.3147 144.775 24.786 144.215 25.122C143.664 25.458 143.048 25.626 142.367 25.626C141.713 25.626 141.135 25.4813 140.631 25.192C140.136 24.8933 139.758 24.5247 139.497 24.086V29.14H138.223V17.828H139.497V19.242ZM144.705 21.636C144.705 21.0573 144.588 20.5533 144.355 20.124C144.121 19.6947 143.804 19.368 143.403 19.144C143.011 18.92 142.577 18.808 142.101 18.808C141.634 18.808 141.2 18.9247 140.799 19.158C140.407 19.382 140.089 19.7133 139.847 20.152C139.613 20.5813 139.497 21.0807 139.497 21.65C139.497 22.2287 139.613 22.7373 139.847 23.176C140.089 23.6053 140.407 23.9367 140.799 24.17C141.2 24.394 141.634 24.506 142.101 24.506C142.577 24.506 143.011 24.394 143.403 24.17C143.804 23.9367 144.121 23.6053 144.355 23.176C144.588 22.7373 144.705 22.224 144.705 21.636ZM154.683 21.37C154.683 21.6127 154.669 21.8693 154.641 22.14H148.509C148.556 22.896 148.813 23.4887 149.279 23.918C149.755 24.338 150.329 24.548 151.001 24.548C151.552 24.548 152.009 24.422 152.373 24.17C152.747 23.9087 153.008 23.5633 153.157 23.134H154.529C154.324 23.8713 153.913 24.4733 153.297 24.94C152.681 25.3973 151.916 25.626 151.001 25.626C150.273 25.626 149.62 25.4627 149.041 25.136C148.472 24.8093 148.024 24.3473 147.697 23.75C147.371 23.1433 147.207 22.4433 147.207 21.65C147.207 20.8567 147.366 20.1613 147.683 19.564C148.001 18.9667 148.444 18.5093 149.013 18.192C149.592 17.8653 150.255 17.702 151.001 17.702C151.729 17.702 152.373 17.8607 152.933 18.178C153.493 18.4953 153.923 18.934 154.221 19.494C154.529 20.0447 154.683 20.67 154.683 21.37ZM153.367 21.104C153.367 20.6187 153.26 20.2033 153.045 19.858C152.831 19.5033 152.537 19.2373 152.163 19.06C151.799 18.8733 151.393 18.78 150.945 18.78C150.301 18.78 149.751 18.9853 149.293 19.396C148.845 19.8067 148.589 20.376 148.523 21.104H153.367ZM159.081 25.626C158.493 25.626 157.966 25.528 157.499 25.332C157.032 25.1267 156.664 24.8467 156.393 24.492C156.122 24.128 155.973 23.7127 155.945 23.246H157.261C157.298 23.6287 157.476 23.9413 157.793 24.184C158.12 24.4267 158.544 24.548 159.067 24.548C159.552 24.548 159.935 24.4407 160.215 24.226C160.495 24.0113 160.635 23.7407 160.635 23.414C160.635 23.078 160.486 22.8307 160.187 22.672C159.888 22.504 159.426 22.3407 158.801 22.182C158.232 22.0327 157.765 21.8833 157.401 21.734C157.046 21.5753 156.738 21.3467 156.477 21.048C156.225 20.74 156.099 20.3387 156.099 19.844C156.099 19.452 156.216 19.0927 156.449 18.766C156.682 18.4393 157.014 18.1827 157.443 17.996C157.872 17.8 158.362 17.702 158.913 17.702C159.762 17.702 160.448 17.9167 160.971 18.346C161.494 18.7753 161.774 19.3633 161.811 20.11H160.537C160.509 19.7087 160.346 19.3867 160.047 19.144C159.758 18.9013 159.366 18.78 158.871 18.78C158.414 18.78 158.05 18.878 157.779 19.074C157.508 19.27 157.373 19.5267 157.373 19.844C157.373 20.096 157.452 20.306 157.611 20.474C157.779 20.6327 157.984 20.7633 158.227 20.866C158.479 20.9593 158.824 21.0667 159.263 21.188C159.814 21.3373 160.262 21.4867 160.607 21.636C160.952 21.776 161.246 21.9907 161.489 22.28C161.741 22.5693 161.872 22.9473 161.881 23.414C161.881 23.834 161.764 24.212 161.531 24.548C161.298 24.884 160.966 25.15 160.537 25.346C160.117 25.5327 159.632 25.626 159.081 25.626ZM164.086 25.584C163.843 25.584 163.638 25.5 163.47 25.332C163.302 25.164 163.218 24.9587 163.218 24.716C163.218 24.4733 163.302 24.268 163.47 24.1C163.638 23.932 163.843 23.848 164.086 23.848C164.319 23.848 164.515 23.932 164.674 24.1C164.842 24.268 164.926 24.4733 164.926 24.716C164.926 24.9587 164.842 25.164 164.674 25.332C164.515 25.5 164.319 25.584 164.086 25.584ZM167.025 25.584C166.782 25.584 166.577 25.5 166.409 25.332C166.241 25.164 166.157 24.9587 166.157 24.716C166.157 24.4733 166.241 24.268 166.409 24.1C166.577 23.932 166.782 23.848 167.025 23.848C167.258 23.848 167.454 23.932 167.613 24.1C167.781 24.268 167.865 24.4733 167.865 24.716C167.865 24.9587 167.781 25.164 167.613 25.332C167.454 25.5 167.258 25.584 167.025 25.584ZM169.964 25.584C169.722 25.584 169.516 25.5 169.348 25.332C169.18 25.164 169.096 24.9587 169.096 24.716C169.096 24.4733 169.18 24.268 169.348 24.1C169.516 23.932 169.722 23.848 169.964 23.848C170.198 23.848 170.394 23.932 170.552 24.1C170.72 24.268 170.804 24.4733 170.804 24.716C170.804 24.9587 170.72 25.164 170.552 25.332C170.394 25.5 170.198 25.584 169.964 25.584Z" fill="#ADADAD"/>
<path d="M1209 0H1260C1261.89 0 1262.83 0 1263.41 0.585786C1264 1.17157 1264 2.11438 1264 4V38C1264 39.8856 1264 40.8284 1263.41 41.4142C1262.83 42 1261.89 42 1260 42H1209V0Z" fill="#509E2F"/>
<path fill-rule="evenodd" clip-rule="evenodd" d="M1235.5 13C1231.63 13 1228.5 16.134 1228.5 20C1228.5 23.866 1231.63 27 1235.5 27C1239.37 27 1242.5 23.866 1242.5 20C1242.5 16.134 1239.37 13 1235.5 13ZM1226.5 20C1226.5 15.0294 1230.53 11 1235.5 11C1240.47 11 1244.5 15.0294 1244.5 20C1244.5 24.9706 1240.47 29 1235.5 29C1230.53 29 1226.5 24.9706 1226.5 20Z" fill="white"/>
<path fill-rule="evenodd" clip-rule="evenodd" d="M1240.44 24.9429C1240.83 24.5524 1241.47 24.5524 1241.86 24.9429L1246.21 29.2929C1246.6 29.6834 1246.6 30.3166 1246.21 30.7071C1245.82 31.0977 1245.18 31.0977 1244.79 30.7071L1240.44 26.3571C1240.05 25.9666 1240.05 25.3334 1240.44 24.9429Z" fill="white"/>
</svg>
